<?xml version="1.0" encoding="UTF-8"?>
<svg
    version="1.1"
    xmlns="http://www.w3.org/2000/svg"
    width="300"
    height="300"
    viewBox="0 0 300 300"
>
    <!-- rounded square background -->
    <rect
        x="0"
        y="0"
        width="300"
        height="300"
        rx="64"
        ry="64"
        fill="#17161E"
    />

    <g transform="translate(85.3 60.0) scale(0.911)">
        <!-- stems -->
        <path
            d="M0 0 H48 V127.5 H0 Z"
            fill="#FFF9FC"
            transform="translate(0,70)"
        />
        <path
            d="M0 0 H46 V127.5 H0 Z"
            fill="#FFF9FC"
            transform="translate(96,70)"
        />

        <!-- dots -->
        <path
            d="M0 0 C15.84 0 31.68 0 48 0 C48 16.83 48 33.66 48 51 C32.16 51 16.32 51 0 51 C0 34.17 0 17.34 0 0 Z"
            fill="#EC4899"
            transform="translate(0,0)"
        />
        <path
            d="M0 0 C15.18 0 30.36 0 46 0 C46 16.83 46 33.66 46 51 C30.82 51 15.64 51 0 51 C0 34.17 0 17.34 0 0 Z"
            fill="#EC4899"
            transform="translate(96,0)"
        />
    </g>
</svg>
