<?xml version="1.0" encoding="UTF-8"?>
<svg version="1.1" xmlns="http://www.w3.org/2000/svg" width="943" height="325">
    <path d="M0 0 C39.27 0 78.54 0 119 0 C119 11.22 119 22.44 119 34 C130.88 34 142.76 34 155 34 C155 73.6 155 113.2 155 154 C143.12 154 131.24 154 119 154 C119 165.55 119 177.1 119 189 C84.02 189 49.04 189 13 189 C13 210.78 13 232.56 13 255 C-2.84 255 -18.68 255 -35 255 C-35 182.07 -35 109.14 -35 34 C-23.45 34 -11.9 34 0 34 C0 22.78 0 11.56 0 0 Z M13 50 C13 79.04 13 108.08 13 138 C44.02 138 75.04 138 107 138 C107 108.96 107 79.92 107 50 C75.98 50 44.96 50 13 50 Z " fill="#FFF9FC" transform="translate(598,70)"/>
    <path d="M0 0 C39.27 0 78.54 0 119 0 C119 11.22 119 22.44 119 34 C130.55 34 142.1 34 154 34 C154 73.6 154 113.2 154 154 C142.45 154 130.9 154 119 154 C119 165.55 119 177.1 119 189 C79.73 189 40.46 189 0 189 C0 177.45 0 165.9 0 154 C-11.88 154 -23.76 154 -36 154 C-36 114.4 -36 74.8 -36 34 C-24.12 34 -12.24 34 0 34 C0 22.78 0 11.56 0 0 Z M12 50 C12 79.04 12 108.08 12 138 C43.02 138 74.04 138 106 138 C106 108.96 106 79.92 106 50 C74.98 50 43.96 50 12 50 Z " fill="#FFF9FC" transform="translate(123,70)"/>
    <path d="M0 0 C38.94 0 77.88 0 118 0 C118 11.22 118 22.44 118 34 C129.88 34 141.76 34 154 34 C154 73.6 154 113.2 154 154 C142.12 154 130.24 154 118 154 C118 165.55 118 177.1 118 189 C79.06 189 40.12 189 0 189 C0 177.45 0 165.9 0 154 C-11.88 154 -23.76 154 -36 154 C-36 114.4 -36 74.8 -36 34 C-24.12 34 -12.24 34 0 34 C0 22.78 0 11.56 0 0 Z M12 50 C12 79.04 12 108.08 12 138 C43.02 138 74.04 138 106 138 C106 108.96 106 79.92 106 50 C74.98 50 43.96 50 12 50 Z " fill="#FFF9FC" transform="translate(361,70)"/>
    <path d="M0 0 C15.51 0 31.02 0 47 0 C47 85.47 47 170.94 47 259 C31.49 259 15.98 259 0 259 C0 173.53 0 88.06 0 0 Z " fill="#FFF9FC" transform="translate(0,0)"/>

    <path d="M0 0 C15.84 0 31.68 0 48 0 C48 62.37 48 124.74 48 189 C32.16 189 16.32 189 0 189 C0 126.63 0 64.26 0 0 Z " fill="#EC4899" transform="translate(801,70)"/>
    <path d="M0 0 C15.18 0 30.36 0 46 0 C46 62.37 46 124.74 46 189 C30.82 189 15.64 189 0 189 C0 126.63 0 64.26 0 0 Z " fill="#EC4899" transform="translate(897,70)"/>
    <path d="M0 0 C15.84 0 31.68 0 48 0 C48 16.83 48 33.66 48 51 C32.16 51 16.32 51 0 51 C0 34.17 0 17.34 0 0 Z " fill="#EC4899" transform="translate(801,0)"/>
    <path d="M0 0 C15.18 0 30.36 0 46 0 C46 16.83 46 33.66 46 51 C30.82 51 15.64 51 0 51 C0 34.17 0 17.34 0 0 Z " fill="#EC4899" transform="translate(897,0)"/>
</svg>
